<svg width="27" height="27" fill="none" xmlns="http://www.w3.org/2000/svg"><path d="M21.378 19.122a3.37 3.37 0 00-3.366 3.367 3.37 3.37 0 003.366 3.366 3.37 3.37 0 003.367-3.366 3.37 3.37 0 00-3.367-3.367zm0 4.713a1.348 1.348 0 01-1.347-1.346 1.348 1.348 0 012.693 0c0 .742-.603 1.346-1.346 1.346zM26.785 6.11a1.009 1.009 0 00-.795-.387H6.234L5.325 1.92a1.01 1.01 0 00-.982-.775H1.01a1.01 1.01 0 100 2.02h2.536l3.282 13.734c.109.455.515.775.983.775h15.722c.464 0 .868-.316.98-.767l2.458-9.931a1.01 1.01 0 00-.186-.865zm-4.043 9.544H8.608l-1.891-7.91H24.7l-1.958 7.91zM9.157 19.122a3.37 3.37 0 00-3.366 3.367 3.37 3.37 0 003.366 3.366 3.37 3.37 0 003.367-3.366 3.37 3.37 0 00-3.367-3.367zm0 4.713A1.348 1.348 0 017.81 22.49a1.348 1.348 0 012.693 0c0 .742-.603 1.346-1.346 1.346z" fill="#000"/></svg>