<svg width="156" height="62" fill="none" xmlns="http://www.w3.org/2000/svg"><path d="M40.049 26.304c-.408.023-.708.068-.901.136a.612.612 0 00-.374.391c-.068.193-.102.504-.102.935v8.432c0 .43.034.742.102.935a.612.612 0 00.374.391c.193.057.493.085.901.085h1.241c.703 0 1.235-.096 1.598-.289.374-.204.646-.527.816-.969.17-.442.295-1.082.374-1.921h.391a15.13 15.13 0 00-.051 1.394c0 .646.04 1.371.119 2.176-.77-.034-2.068-.051-3.893-.051-2.176 0-3.82.017-4.93.051v-.34c.408-.023.703-.068.884-.136a.611.611 0 00.391-.391c.068-.193.102-.504.102-.935v-8.432c0-.43-.034-.742-.102-.935a.611.611 0 00-.391-.391c-.181-.068-.476-.113-.884-.136v-.34a33.56 33.56 0 002.176.051c.907 0 1.626-.017 2.159-.051v.34zm16.913 9.52c0 .646.04 1.371.12 2.176-.772-.034-2.07-.051-3.894-.051-2.176 0-3.82.017-4.93.051v-.34c.408-.023.703-.068.884-.136a.611.611 0 00.391-.391c.068-.193.102-.504.102-.935v-8.432c0-.43-.034-.742-.102-.935a.611.611 0 00-.39-.391c-.182-.068-.477-.113-.885-.136v-.34c1.11.034 2.754.051 4.93.051 1.666 0 2.85-.017 3.553-.051a19.05 19.05 0 00-.119 2.006c0 .442.017.793.051 1.054h-.39c-.08-.737-.182-1.28-.307-1.632-.124-.363-.334-.623-.629-.782-.294-.17-.742-.255-1.343-.255h-1.41c-.409 0-.71.034-.902.102a.562.562 0 00-.374.374c-.068.193-.102.504-.102.935v4.012h1.122c.397 0 .703-.09.918-.272a1.37 1.37 0 00.425-.663c.08-.26.142-.584.187-.969l.051-.34h.391a22.608 22.608 0 00-.05 1.598v.816c0 .578.033 1.383.101 2.414h-.39c-.012-.08-.046-.351-.103-.816-.056-.476-.215-.833-.476-1.071-.25-.238-.6-.357-1.054-.357h-1.122v4.08c0 .43.034.742.102.935a.612.612 0 00.374.391c.193.057.493.085.901.085h1.241c.703 0 1.235-.09 1.598-.272a1.72 1.72 0 00.816-.901c.17-.42.295-1.031.374-1.836h.391c-.034.306-.05.714-.05 1.224zm13.045-9.809c.51 0 .935-.017 1.275-.051v.34c-.566.136-1.014.629-1.343 1.479l-3.994 10.302h-.272l-4.148-10.693c-.273-.703-.663-1.065-1.173-1.088v-.34c.453.034 1.06.051 1.819.051.974 0 1.7-.017 2.176-.051v.34c-.431.023-.743.08-.935.17-.182.08-.273.232-.273.459 0 .193.069.459.204.799l3.078 8.177 2.77-7.191c.227-.612.34-1.077.34-1.394 0-.351-.124-.606-.374-.765-.237-.159-.606-.244-1.105-.255v-.34c.646.034 1.298.051 1.955.051zm8.753.289c-.407.023-.708.068-.9.136a.612.612 0 00-.374.391c-.069.193-.103.504-.103.935v8.432c0 .43.035.742.103.935a.612.612 0 00.373.391c.193.068.494.113.901.136V38a35.186 35.186 0 00-2.159-.051c-.974 0-1.7.017-2.175.051v-.34c.407-.023.702-.068.883-.136a.611.611 0 00.392-.391c.068-.193.102-.504.102-.935v-8.432c0-.43-.034-.742-.102-.935a.611.611 0 00-.391-.391c-.182-.068-.477-.113-.885-.136v-.34c.477.034 1.202.051 2.177.051a35.7 35.7 0 002.158-.051v.34zm6.934 6.834v3.06c0 .43.046.742.136.935.09.193.25.323.476.391.227.068.595.113 1.105.136V38a46.4 46.4 0 00-2.499-.051c-.974 0-1.7.017-2.176.051v-.34c.408-.023.703-.068.884-.136a.611.611 0 00.391-.391c.068-.193.102-.504.102-.935v-8.432c0-.43-.034-.742-.102-.935a.611.611 0 00-.39-.391c-.182-.068-.477-.113-.885-.136v-.34a31.43 31.43 0 002.074.051l1.836-.017c.216-.011.46-.017.731-.017 1.326 0 2.34.306 3.043.918.703.6 1.054 1.411 1.054 2.431 0 .623-.141 1.224-.425 1.802-.272.567-.742 1.043-1.41 1.428-.658.385-1.536.578-2.636.578h-1.309zm1.258-6.834c-.351 0-.617.04-.799.119a.677.677 0 00-.357.425c-.068.204-.102.51-.102.918v5.032h1.14c1.11 0 1.875-.295 2.294-.884.43-.6.646-1.4.646-2.397 0-1.1-.22-1.91-.663-2.431-.43-.521-1.15-.782-2.159-.782zm13.872-.578c1.076 0 2.017.244 2.822.731.816.487 1.445 1.196 1.887 2.125.453.918.68 2.017.68 3.298 0 1.247-.233 2.352-.697 3.315-.454.963-1.094 1.711-1.921 2.244-.816.533-1.746.799-2.788.799-1.077 0-2.023-.244-2.84-.731-.804-.487-1.433-1.19-1.886-2.108-.442-.93-.663-2.034-.663-3.315 0-1.247.226-2.352.68-3.315.464-.963 1.105-1.711 1.92-2.244.828-.533 1.763-.799 2.806-.799zm-.068.306c-.726 0-1.366.255-1.921.765-.544.499-.97 1.201-1.275 2.108-.295.907-.442 1.944-.442 3.111 0 1.179.164 2.216.493 3.111.34.895.793 1.587 1.36 2.074.566.487 1.201.731 1.904.731.725 0 1.36-.25 1.904-.748.555-.51.98-1.218 1.275-2.125.306-.907.459-1.944.459-3.111 0-1.179-.17-2.216-.51-3.111-.329-.895-.777-1.587-1.343-2.074-.567-.487-1.202-.731-1.904-.731zm18.975-.068c-.079.805-.119 1.53-.119 2.176 0 .567.017 1.031.051 1.394h-.391c-.09-.873-.204-1.519-.34-1.938-.136-.43-.374-.742-.714-.935-.34-.204-.861-.306-1.564-.306h-.918v9.673c0 .476.046.822.136 1.037a.77.77 0 00.476.442c.227.08.595.13 1.105.153V38a46.38 46.38 0 00-2.499-.051c-1.133 0-1.972.017-2.516.051v-.34c.51-.023.879-.074 1.105-.153a.765.765 0 00.476-.442c.091-.215.136-.561.136-1.037v-9.673h-.918c-.702 0-1.224.102-1.564.306-.34.193-.578.504-.714.935-.136.42-.249 1.065-.34 1.938h-.391c.034-.363.051-.827.051-1.394 0-.646-.039-1.371-.119-2.176.941.034 2.539.051 4.794.051 2.244 0 3.837-.017 4.777-.051z" fill="#000"/><path stroke="#000" d="M.5.5h155v61H.5z"/></svg>