<svg width="15" height="10" fill="none" xmlns="http://www.w3.org/2000/svg"><path d="M13.682 0H1.318C.59 0 0 .563 0 1.25v7.5C0 9.441.594 10 1.318 10h12.364C14.404 10 15 9.444 15 8.75v-7.5C15 .564 14.412 0 13.682 0zm-.185.833L8.432 5.61c-.249.236-.58.366-.932.366-.352 0-.683-.13-.933-.367L1.503.833h11.994zM.879 8.58V1.42l3.798 3.582L.879 8.58zm.625.587L5.3 5.59l.646.61c.415.393.967.61 1.554.61.587 0 1.139-.217 1.553-.61l.647-.61 3.796 3.577H1.504zM14.12 8.58l-3.798-3.578L14.12 1.42v7.16z" fill="#000"/></svg>