<svg width="23" height="24" fill="none" xmlns="http://www.w3.org/2000/svg"><g clip-path="url(#clip0)" fill="#000"><path d="M19.985 5.432L15.193.64a.479.479 0 00-.339-.14H4.792a1.92 1.92 0 00-1.917 1.917v19.166A1.92 1.92 0 004.792 23.5h13.416a1.92 1.92 0 001.917-1.917V5.771a.479.479 0 00-.14-.339zm-4.652-3.296l3.156 3.156h-2.197a.96.96 0 01-.959-.959V2.136zm3.834 19.447a.96.96 0 01-.959.959H4.792a.96.96 0 01-.959-.959V2.417a.96.96 0 01.959-.959h9.583v2.875a1.92 1.92 0 001.917 1.917h2.875v15.333z"/><path d="M13.943 14.567a13.91 13.91 0 01-1.146-.99 16.34 16.34 0 01-.973-1.055c.441-1.362.634-2.064.634-2.439 0-1.59-.574-1.916-1.437-1.916-.656 0-1.438.34-1.438 1.962 0 .715.392 1.583 1.168 2.592-.19.58-.413 1.248-.664 2.002-.12.362-.251.697-.39 1.007-.113.05-.222.101-.328.154-.38.19-.743.362-1.078.52-1.53.725-2.541 1.204-2.541 2.15 0 .687.746 1.113 1.438 1.113.89 0 2.236-1.19 3.218-3.195 1.02-.402 2.289-.7 3.29-.887.802.616 1.687 1.207 2.117 1.207 1.188 0 1.437-.687 1.437-1.263 0-1.133-1.294-1.133-1.917-1.133-.193 0-.711.057-1.39.17zm-6.755 4.141a.757.757 0 01-.48-.154c0-.34 1.013-.82 1.993-1.284l.19-.089c-.72 1.043-1.432 1.527-1.704 1.527zm3.354-8.579c0-1.004.311-1.004.479-1.004.339 0 .479 0 .479.958 0 .203-.135.708-.381 1.497-.377-.58-.577-1.076-.577-1.45zm.367 5.15a9.86 9.86 0 00.087-.252c.178-.534.338-1.013.48-1.444.2.219.414.443.644.672.09.09.312.292.609.545-.59.13-1.22.289-1.82.48zm5.383.25c0 .215 0 .304-.445.307-.13-.028-.432-.206-.805-.46.136-.014.235-.022.291-.022.708 0 .91.07.959.175z"/></g><defs><clipPath id="clip0"><path fill="#fff" transform="translate(0 .5)" d="M0 0h23v23H0z"/></clipPath></defs></svg>