<svg width="15" height="16" fill="none" xmlns="http://www.w3.org/2000/svg"><g clip-path="url(#clip0)" fill="#000"><path d="M11.405 10.422c-.49-.483-1.102-.483-1.59 0-.37.369-.742.737-1.107 1.112-.1.103-.184.124-.306.056-.24-.131-.496-.238-.727-.381-1.077-.677-1.98-1.548-2.778-2.528-.397-.487-.75-1.009-.996-1.595-.05-.119-.04-.197.056-.294.371-.359.734-.727 1.099-1.095.508-.512.508-1.112-.003-1.627-.29-.293-.581-.58-.871-.874-.3-.3-.596-.602-.9-.899-.49-.477-1.101-.477-1.588.004-.375.368-.734.746-1.114 1.108a1.81 1.81 0 00-.568 1.22c-.06.777.13 1.51.4 2.226.548 1.48 1.385 2.793 2.4 3.998a14.854 14.854 0 004.919 3.849c.861.418 1.754.74 2.725.793.668.037 1.248-.131 1.713-.653.319-.356.678-.68 1.015-1.02.5-.506.502-1.118.006-1.617a483.88 483.88 0 00-1.785-1.783zm-.597-2.487l1.151-.196a5.148 5.148 0 00-1.438-2.779 5.12 5.12 0 00-2.935-1.463l-.162 1.158a3.972 3.972 0 012.272 1.133c.587.586.971 1.33 1.112 2.147zm1.801-5.007A8.493 8.493 0 007.739.5l-.162 1.158a7.364 7.364 0 014.208 2.098 7.358 7.358 0 012.063 3.98L15 7.538a8.555 8.555 0 00-2.391-4.61z"/></g><defs><clipPath id="clip0"><path fill="#fff" transform="translate(0 .5)" d="M0 0h15v15H0z"/></clipPath></defs></svg>